[Header]
FileType HTR
DataType HTRS
FileVersion 1
NumSegments 64
NumFrames 3
DataFrameRate 24
EulerRotationOrder ZYX
CalibrationUnits mm
RotationUnits Degrees
GlobalAxisofGravity Y
BoneLengthAxis Y
ScaleFactor 1.0
[SegmentNames&Hierarchy]
Hips	GLOBAL
Spine	Hips
Spine1	Spine
Spine2	Spine1
Neck	Spine2
Head	Neck
LeftEye	Head
RightEye	Head
LeftShoulder	Spine2
LeftArm	LeftShoulder
LeftForeArm	LeftArm
LeftHand	LeftForeArm
LeftHandThumb1	LeftHand
LeftHandThumb2	LeftHandThumb1
LeftHandThumb3	LeftHandThumb2
LeftHandThumb4	LeftHandThumb3
LeftHandIndex1	LeftHand
LeftHandIndex2	LeftHandIndex1
LeftHandIndex3	LeftHandIndex2
LeftHandIndex4	LeftHandIndex3
LeftHandMiddle1	LeftHand
LeftHandMiddle2	LeftHandMiddle1
LeftHandMiddle3	LeftHandMiddle2
LeftHandMiddle4	LeftHandMiddle3
LeftHandRing1	LeftHand
LeftHandRing2	LeftHandRing1
LeftHandRing3	LeftHandRing2
LeftHandRing4	LeftHandRing3
LeftHandPinky1	LeftHand
LeftHandPinky2	LeftHandPinky1
LeftHandPinky3	LeftHandPinky2
LeftHandPinky4	LeftHandPinky3
RightShoulder	Spine2
RightArm	RightShoulder
RightForeArm	RightArm
RightHand	RightForeArm
RightHandPinky1	RightHand
RightHandPinky2	RightHandPinky1
RightHandPinky3	RightHandPinky2
RightHandPinky4	RightHandPinky3
RightHandRing1	RightHand
RightHandRing2	RightHandRing1
RightHandRing3	RightHandRing2
RightHandRing4	RightHandRing3
RightHandMiddle1	RightHand
RightHandMiddle2	RightHandMiddle1
RightHandMiddle3	RightHandMiddle2
RightHandMiddle4	RightHandMiddle3
RightHandIndex1	RightHand
RightHandIndex2	RightHandIndex1
RightHandIndex3	RightHandIndex2
RightHandIndex4	RightHandIndex3
RightHandThumb1	RightHand
RightHandThumb2	RightHandThumb1
RightHandThumb3	RightHandThumb2
RightHandThumb4	RightHandThumb3
LeftUpLeg	Hips
LeftLeg	LeftUpLeg
LeftFoot	LeftLeg
LeftToeBase	LeftFoot
RightUpLeg	Hips
RightLeg	RightUpLeg
RightFoot	RightLeg
RightToeBase	RightFoot
[BasePosition]
Hips	0	0	0	0	0	0	1
Spine	0	0	0	0	0	0	1
Spine1	0	0	0	0	0	0	1
Spine2	0	0	0	0	0	0	1
Neck	0	0	0	0	0	0	1
Head	0	0	0	0	0	0	1
LeftEye	0	0	0	0	0	0	1
RightEye	0	0	0	0	0	0	1
LeftShoulder	0	0	0	0	0	0	1
LeftArm	0	0	0	0	0	0	1
LeftForeArm	0	0	0	0	0	0	1
LeftHand	0	0	0	0	0	0	1
LeftHandThumb1	0	0	0	0	0	0	1
LeftHandThumb2	0	0	0	0	0	0	1
LeftHandThumb3	0	0	0	0	0	0	1
LeftHandThumb4	0	0	0	0	0	0	1
LeftHandIndex1	0	0	0	0	0	0	1
LeftHandIndex2	0	0	0	0	0	0	1
LeftHandIndex3	0	0	0	0	0	0	1
LeftHandIndex4	0	0	0	0	0	0	1
LeftHandMiddle1	0	0	0	0	0	0	1
LeftHandMiddle2	0	0	0	0	0	0	1
LeftHandMiddle3	0	0	0	0	0	0	1
LeftHandMiddle4	0	0	0	0	0	0	1
LeftHandRing1	0	0	0	0	0	0	1
LeftHandRing2	0	0	0	0	0	0	1
LeftHandRing3	0	0	0	0	0	0	1
LeftHandRing4	0	0	0	0	0	0	1
LeftHandPinky1	0	0	0	0	0	0	1
LeftHandPinky2	0	0	0	0	0	0	1
LeftHandPinky3	0	0	0	0	0	0	1
LeftHandPinky4	0	0	0	0	0	0	1
RightShoulder	0	0	0	0	0	0	1
RightArm	0	0	0	0	0	0	1
RightForeArm	0	0	0	0	0	0	1
RightHand	0	0	0	0	0	0	1
RightHandPinky1	0	0	0	0	0	0	1
RightHandPinky2	0	0	0	0	0	0	1
RightHandPinky3	0	0	0	0	0	0	1
RightHandPinky4	0	0	0	0	0	0	1
RightHandRing1	0	0	0	0	0	0	1
RightHandRing2	0	0	0	0	0	0	1
RightHandRing3	0	0	0	0	0	0	1
RightHandRing4	0	0	0	0	0	0	1
RightHandMiddle1	0	0	0	0	0	0	1
RightHandMiddle2	0	0	0	0	0	0	1
RightHandMiddle3	0	0	0	0	0	0	1
RightHandMiddle4	0	0	0	0	0	0	1
RightHandIndex1	0	0	0	0	0	0	1
RightHandIndex2	0	0	0	0	0	0	1
RightHandIndex3	0	0	0	0	0	0	1
RightHandIndex4	0	0	0	0	0	0	1
RightHandThumb1	0	0	0	0	0	0	1
RightHandThumb2	0	0	0	0	0	0	1
RightHandThumb3	0	0	0	0	0	0	1
RightHandThumb4	0	0	0	0	0	0	1
LeftUpLeg	0	0	0	0	0	0	1
LeftLeg	0	0	0	0	0	0	1
LeftFoot	0	0	0	0	0	0	1
LeftToeBase	0	0	0	0	0	0	1
RightUpLeg	0	0	0	0	0	0	1
RightLeg	0	0	0	0	0	0	1
RightFoot	0	0	0	0	0	0	1
RightToeBase	0	0	0	0	0	0	1
[Hips]
21	-1679.30835	988.2121582	-8.706951141	23.44070625	-79.99971008	-22.90393829	1.0
22	-1758.582031	1003.881897	-15.60875034	28.8806572	-80.60220337	-28.75415039	1.0
23	-1832.085449	1017.231506	-18.53418541	28.91932678	-81.05292511	-28.9490242	1.0
[Spine]
21	0	101.8159943	1.315000057	2.903384209	4.448398113	2.274861336	1.0
22	0	101.8159943	1.315000057	3.435563803	5.222837448	2.308638334	1.0
23	0	101.8159943	1.315000057	3.696003675	5.957148552	1.867637515	1.0
[Spine1]
21	0	100.8349991	-10.00800037	1.006719112	14.46887398	-1.091878176	1.0
22	0	100.8349991	-10.00800037	1.130912423	14.7212162	-1.109523296	1.0
23	0	100.8349991	-10.00800037	1.253305674	14.96755695	-1.278065681	1.0
[Spine2]
21	0	91	-13.73399925	0.7533182502	14.42459679	-1.448520303	1.0
22	0	91	-13.73399925	0.8779140115	14.6731205	-1.464637756	1.0
23	0	91	-13.73399925	1.002335668	14.91814137	-1.63222301	1.0
[Neck]
21	0	166.7169952	-25.16200066	3.262226105	6.332256317	0.02651614137	1.0
22	0	166.7169952	-25.16200066	3.370102167	6.129961491	0.5872132778	1.0
23	0	166.7169952	-25.16200066	3.977976799	5.811712742	0.9358919263	1.0
[Head]
21	0	96.17900085	16.84999847	-14.44887161	39.03858185	-8.492228508	1.0
22	0	96.17900085	16.84999847	-14.47924995	38.9213829	-8.201956749	1.0
23	0	96.17900085	16.84999847	-14.33875465	38.1383934	-7.68943119	1.0
[LeftEye]
21	30.6760006	64.09500122	92.83599854	0	0	0	1.0
22	30.6760006	64.09500122	92.83599854	0	0	0	1.0
23	30.6760006	64.09500122	92.83599854	0	0	0	1.0
[RightEye]
21	-30.6760006	64.09500122	92.83499908	0	0	0	1.0
22	-30.6760006	64.09500122	92.83499908	0	0	0	1.0
23	-30.6760006	64.09500122	92.83499908	0	0	0	1.0
[LeftShoulder]
21	45.70400238	109.4599991	-26.28000069	3.838135004	-2.67491889	-6.527001858	1.0
22	45.70400238	109.4599991	-26.28000069	3.884349346	-2.601339102	-7.166614532	1.0
23	45.70400238	109.4599991	-26.28000069	3.989599228	-3.305794001	-7.794035912	1.0
[LeftArm]
21	105.923996	-5.24600029	-22.32099915	31.02093887	-25.85249138	-59.03233719	1.0
22	105.923996	-5.24600029	-22.32099915	32.13412857	-21.80675697	-61.89076614	1.0
23	105.923996	-5.24600029	-22.32099915	28.46171379	-18.26699638	-64.55851746	1.0
[LeftForeArm]
21	278.414978	-0.0009999999311	0	2.149187367e-06	-38.66159439	-0.0002072141215	1.0
22	278.414978	-0.0009999999311	0	8.179694305e-06	-32.10660934	-0.0002063560387	1.0
23	278.414978	-0.0009999999311	0	-5.87943623e-06	-23.55898666	-0.0001965691918	1.0
[LeftHand]
21	283.2879944	0	0	6.429239273	-18.31478691	22.18321991	1.0
22	283.2879944	0	0	5.318100929	-21.12111092	27.94057655	1.0
23	283.2879944	0	0	10.53008366	-24.13017464	27.81966209	1.0
[LeftHandThumb1]
21	24.6609993	-15.75	26.8239994	11.11590195	-7.513934612	-7.102613926	1.0
22	24.6609993	-15.75	26.8239994	10.67518711	-5.022806644	-5.644235611	1.0
23	24.6609993	-15.75	26.8239994	10.09133244	-0.8444254398	-3.19297576	1.0
[LeftHandThumb2]
21	32.29800034	-18.64699936	18.64699936	-0.5815582275	22.85137749	11.00523758	1.0
22	32.29800034	-18.64699936	18.64699936	-0.2049836069	20.89703941	11.2151413	1.0
23	32.29800034	-18.64699936	18.64699936	0.8590087891	17.52428627	11.70299721	1.0
[LeftHandThumb3]
21	26.52600098	-15.31499958	15.31499958	2.254498243	10.43893719	1.412303567	1.0
22	26.52600098	-15.31499958	15.31499958	2.198662519	10.28085804	1.455726147	1.0
23	26.52600098	-15.31499958	15.31499958	2.353835583	10.72631741	1.339471936	1.0
[LeftHandThumb4]
21	19.54599953	-11.28499985	11.28499985	0	0	0	1.0
22	19.54599953	-11.28499985	11.28499985	0	0	0	1.0
23	19.54599953	-11.28499985	11.28499985	0	0	0	1.0
[LeftHandIndex1]
21	91.09299469	-5.170999527	22.60099792	-0.5011816621	-0.2362116724	-7.128643513	1.0
22	91.09299469	-5.170999527	22.60099792	-0.131109342	0.1352220774	-3.612151384	1.0
23	91.09299469	-5.170999527	22.60099792	0.3576544523	0.3877816796	0.8913808465	1.0
[LeftHandIndex2]
21	36.76399994	0	0	0.01789198257	0.7927846313	-0.01681542397	1.0
22	36.76399994	0	0	0.01812158898	0.7851603627	-0.0001031585489	1.0
23	36.76399994	0	0	0.01425777189	0.8189204335	-0.2756814063	1.0
[LeftHandIndex3]
21	28.83100128	0	0	-0.0501732789	-0.8089876175	5.944733143	1.0
22	28.83100128	0	0	-0.05179637671	-0.8243842125	6.098694801	1.0
23	28.83100128	0	0	-0.04643610865	-0.7718273997	5.57323885	1.0
[LeftHandIndex4]
21	23.92700005	0	0	0	0	0	1.0
22	23.92700005	0	0	0	0	0	1.0
23	23.92700005	0	0	0	0	0	1.0
[LeftHandMiddle1]
21	95.33399963	0	0	-1.849859118	5.169142723	-18.92858887	1.0
22	95.33399963	0	0	-1.368171453	5.453998566	-14.89509964	1.0
23	95.33399963	0	0	-0.7770420909	5.690775871	-9.71386528	1.0
[LeftHandMiddle2]
21	36.98199844	0	0	0.03423014656	0.8149034977	0.0001513008319	1.0
22	36.98199844	0	0	0.034201134	0.815805614	0.0001640244445	1.0
23	36.98199844	0	0	0.02519532852	0.8759339452	-0.5293936133	1.0
[LeftHandMiddle3]
21	29.50900078	0	0	-0.03956576437	-0.5504319072	8.32772541	1.0
22	29.50900078	0	0	-0.04224580154	-0.5712535977	8.538611412	1.0
23	29.50900078	0	0	-0.03314053267	-0.4977279603	7.794668674	1.0
[LeftHandMiddle4]
21	28.3390007	0	0	0	0	0	1.0
22	28.3390007	0	0	0	0	0	1.0
23	28.3390007	0	0	0	0	0	1.0
[LeftHandRing1]
21	91.04499817	-0.4390000105	-18.65100098	-2.232731342	10.58069324	-21.10201263	1.0
22	91.04499817	-0.4390000105	-18.65100098	-1.901029706	11.14763737	-18.15472794	1.0
23	91.04499817	-0.4390000105	-18.65100098	-1.524868488	11.89989662	-14.68802261	1.0
[LeftHandRing2]
21	31.54000092	0	0	0.002319565276	0.3448843062	-0.02720983885	1.0
22	31.54000092	0	0	0.002019966021	0.3400437832	-0.0001308149804	1.0
23	31.54000092	0	0	0.004605206661	0.4169616699	-0.7538135052	1.0
[LeftHandRing3]
21	29.37700081	0	0	-0.08100095391	-0.7517209649	7.571212292	1.0
22	29.37700081	0	0	-0.08936034888	-0.7868458629	7.93396616	1.0
23	29.37700081	0	0	-0.06526017934	-0.6827908754	6.860995293	1.0
[LeftHandRing4]
21	26.47500038	0	0	0	0	0	1.0
22	26.47500038	0	0	0	0	0	1.0
23	26.47500038	0	0	0	0	0	1.0
[LeftHandPinky1]
21	80.77799988	-4.887000084	-38.06099701	-3.101653814	12.66136265	-25.56554031	1.0
22	80.77799988	-4.887000084	-38.06099701	-2.56768775	13.73276424	-22.46529961	1.0
23	80.77799988	-4.887000084	-38.06099701	-2.044418812	14.98706341	-19.11977386	1.0
[LeftHandPinky2]
21	36	0	0	-0.0004833533603	-0.1746944934	-0.03238303214	1.0
22	36	0	0	-0.0008746087551	-0.1677674502	-0.1018019617	1.0
23	36	0	0	-0.01013064012	-0.03208889067	-1.460369945	1.0
[LeftHandPinky3]
21	21.14200211	0	0	-0.06586322933	-0.5814242363	14.39992237	1.0
22	21.14200211	0	0	-0.06477257609	-0.5749081969	14.33414841	1.0
23	21.14200211	0	0	-0.03849039227	-0.4002890587	12.57386589	1.0
[LeftHandPinky4]
21	19.75699997	0	0	0	0	0	1.0
22	19.75699997	0	0	0	0	0	1.0
23	19.75699997	0	0	0	0	0	1.0
[RightShoulder]
21	-45.70000076	109.4620056	-26.28000069	6.238066673	17.52606964	15.92389011	1.0
22	-45.70000076	109.4620056	-26.28000069	6.649618626	17.90335464	17.68214989	1.0
23	-45.70000076	109.4620056	-26.28000069	6.864386082	18.16968536	18.46512794	1.0
[RightArm]
21	-105.9280014	-5.248000145	-22.32099915	-24.64927864	-23.03964615	74.75819397	1.0
22	-105.9280014	-5.248000145	-22.32099915	-16.52669334	-16.13907051	69.7352066	1.0
23	-105.9280014	-5.248000145	-22.32099915	-9.696012497	-8.143647194	65.79497528	1.0
[RightForeArm]
21	-278.414978	0	0	9.146987395e-06	-0.00019497842	-7.953286513e-06	1.0
22	-278.414978	0	0	3.277143605e-06	0.01043826994	-1.014760073e-05	1.0
23	-278.414978	0	0	1.754931532e-06	0.5516519547	-2.042499e-05	1.0
[RightHand]
21	-283.2879944	0	0.0009999999311	24.05428696	-16.28528976	7.812942505	1.0
22	-283.2879944	0	0.0009999999311	27.32752037	-16.91226768	11.07256031	1.0
23	-283.2879944	0	0.0009999999311	28.50583267	-14.99408627	14.06805515	1.0
[RightHandPinky1]
21	-80.76699829	-4.885000229	-38.06000137	-7.253539562	-17.33174324	45.86971283	1.0
22	-80.76699829	-4.885000229	-38.06000137	-8.440657616	-16.9621067	52.58555222	1.0
23	-80.76699829	-4.885000229	-38.06000137	-8.506299973	-16.7239933	53.17786407	1.0
[RightHandPinky2]
21	-36	0	0.0009999999311	-0.7871041894	-2.421963453	27.43474197	1.0
22	-36	0	0.0009999999311	-1.025414586	-2.79210639	31.84356117	1.0
23	-36	0	0.0009999999311	-1.078683138	-2.866934776	32.76349258	1.0
[RightHandPinky3]
21	-21.14200211	0	0	-0.4766944945	0.7221713662	14.8723278	1.0
22	-21.14200211	0	0	-0.6406005025	0.3155137599	19.24251747	1.0
23	-21.14200211	0	0	-0.6787768602	0.2321543396	20.15624619	1.0
[RightHandPinky4]
21	-19.75699997	0	0	0	0	0	1.0
22	-19.75699997	0	0	0	0	0	1.0
23	-19.75699997	0	0	0	0	0	1.0
[RightHandRing1]
21	-91.03599548	-0.4390000105	-18.65100098	-5.161940575	-13.66488171	41.92950439	1.0
22	-91.03599548	-0.4390000105	-18.65100098	-5.966071606	-13.26644135	47.7768898	1.0
23	-91.03599548	-0.4390000105	-18.65100098	-5.985991955	-13.17879868	47.95225906	1.0
[RightHandRing2]
21	-31.54000092	0	0	-0.2754543424	-2.328120947	20.32618141	1.0
22	-31.54000092	0	0	-0.3935358524	-2.65449214	23.82974434	1.0
23	-31.54000092	0	0	-0.4191785753	-2.717994213	24.52114296	1.0
[RightHandRing3]
21	-29.37700081	0	0	-0.07897473872	0.4086766839	14.56061459	1.0
22	-29.37700081	0	0	-0.1556061804	0.01254773047	18.61267281	1.0
23	-29.37700081	0	0	-0.1743728966	-0.06638821959	19.42739105	1.0
[RightHandRing4]
21	-26.47500038	0	0	0	0	0	1.0
22	-26.47500038	0	0	0	0	0	1.0
23	-26.47500038	0	0	0	0	0	1.0
[RightHandMiddle1]
21	-95.32500458	0	0	-3.78343749	-9.420253754	33.35091782	1.0
22	-95.32500458	0	0	-4.501720428	-8.65087986	38.6227684	1.0
23	-95.32500458	0	0	-4.440940857	-8.094297409	38.23718643	1.0
[RightHandMiddle2]
21	-36.98199844	0	0	-0.5491433144	-2.576209784	18.3058548	1.0
22	-36.98199844	0	0	-0.7037428021	-2.853483438	21.44151878	1.0
23	-36.98199844	0	0	-0.7340758443	-2.903974056	22.02338409	1.0
[RightHandMiddle3]
21	-29.50900078	0	0	-0.2581816614	-1.693594456	16.06080627	1.0
22	-29.50900078	0	0	-0.3646456301	-2.005683184	19.3768177	1.0
23	-29.50900078	0	0	-0.3866581023	-2.06359911	19.99993896	1.0
[RightHandMiddle4]
21	-28.3390007	0	0.0009999999311	0	0	0	1.0
22	-28.3390007	0	0.0009999999311	0	0	0	1.0
23	-28.3390007	0	0.0009999999311	0	0	0	1.0
[RightHandIndex1]
21	-91.08300018	-5.167999744	22.60099792	-1.217170835	-3.934993267	19.43152809	1.0
22	-91.08300018	-5.167999744	22.60099792	-1.840367317	-4.131621361	25.38562202	1.0
23	-91.08300018	-5.167999744	22.60099792	-1.747575045	-3.863993883	25.10492134	1.0
[RightHandIndex2]
21	-36.76399994	0	0	-0.2928269207	-2.030419827	12.57880592	1.0
22	-36.76399994	0	0	-0.359665066	-2.201910734	14.38834572	1.0
23	-36.76399994	0	0	-0.368070513	-2.222426176	14.60635567	1.0
[RightHandIndex3]
21	-28.83100128	0	0	-0.3286421895	-0.4820261002	17.19471359	1.0
22	-28.83100128	0	0	-0.388956815	-0.6659229398	19.11961174	1.0
23	-28.83100128	0	0	-0.3970222473	-0.6890485883	19.36325645	1.0
[RightHandIndex4]
21	-23.92700005	0	0	0	0	0	1.0
22	-23.92700005	0	0	0	0	0	1.0
23	-23.92700005	0	0	0	0	0	1.0
[RightHandThumb1]
21	-24.64799881	-15.72700024	26.82600021	9.203827858	-5.161912918	-2.876231194	1.0
22	-24.64799881	-15.72700024	26.82600021	9.541193008	-5.883795738	-3.252028227	1.0
23	-24.64799881	-15.72700024	26.82600021	9.571443558	-5.946612358	-3.283804417	1.0
[RightHandThumb2]
21	-32.29800034	-18.64699936	18.64699936	14.61208248	-18.08838272	-14.83110523	1.0
22	-32.29800034	-18.64699936	18.64699936	12.19376659	-22.3071785	-14.2780838	1.0
23	-32.29800034	-18.64699936	18.64699936	7.965248108	-26.05894661	-13.87991714	1.0
[RightHandThumb3]
21	-26.52600098	-15.31399918	15.31399918	4.979150772	-6.083768845	0.2243785411	1.0
22	-26.52600098	-15.31399918	15.31399918	5.26407671	-8.248731613	0.08312702179	1.0
23	-26.52600098	-15.31399918	15.31399918	5.386395931	-10.18194485	-0.4413122535	1.0
[RightHandThumb4]
21	-19.54599953	-11.28499985	11.28499985	0	0	0	1.0
22	-19.54599953	-11.28499985	11.28499985	0	0	0	1.0
23	-19.54599953	-11.28499985	11.28499985	0	0	0	1.0
[LeftUpLeg]
21	82.07800293	-67.51699829	-15.99599934	5.295602798	7.846540928	7.133144855	1.0
22	82.07800293	-67.51699829	-15.99599934	-4.241128922	6.223798275	5.540113926	1.0
23	82.07800293	-67.51699829	-15.99599934	-13.35137272	2.88939023	2.440475225	1.0
[LeftLeg]
21	0	-443.7049866	2.845999956	48.02087784	-1.091185212	11.99217987	1.0
22	0	-443.7049866	2.845999956	57.04059601	-1.20638752	12.1065588	1.0
23	0	-443.7049866	2.845999956	59.43148041	-1.146231532	11.47177029	1.0
[LeftFoot]
21	0	-444.2789917	-29.8219986	24.63748169	0.3393053114	-5.790507793	1.0
22	0	-444.2789917	-29.8219986	21.40085602	3.100416899	-3.74425149	1.0
23	0	-444.2789917	-29.8219986	11.86028194	8.453127861	-0.7884141207	1.0
[LeftToeBase]
21	0	-87.28699493	107.1060028	-1.887843132	-1.67007363e-06	-1.729765972e-05	1.0
22	0	-87.28699493	107.1060028	-0.2535903156	-1.91688614e-05	-1.379509467e-05	1.0
23	0	-87.28699493	107.1060028	-0.5896244049	-7.653803635e-08	-1.362524245e-06	1.0
[RightUpLeg]
21	-82.07800293	-67.51699829	-15.99599934	-28.15940666	-1.111687422	6.780393124	1.0
22	-82.07800293	-67.51699829	-15.99599934	-21.45924759	-1.333066821	8.717413902	1.0
23	-82.07800293	-67.51699829	-15.99599934	-13.97777271	-2.970875025	9.465016365	1.0
[RightLeg]
21	0	-443.7049866	2.861999989	26.77103043	-7.537866116	-5.05192709	1.0
22	0	-443.7049866	2.861999989	24.4929657	-7.559688091	-4.743654728	1.0
23	0	-443.7049866	2.861999989	19.60200691	-6.678592205	-3.784160137	1.0
[RightFoot]
21	0	-444.2770081	-29.83799934	1.138154268	-2.10768342	-2.639940023	1.0
22	0	-444.2770081	-29.83799934	-3.025644541	-1.243022084	-2.877791166	1.0
23	0	-444.2770081	-29.83799934	-6.365240097	-0.9300106764	-3.43112278	1.0
[RightToeBase]
21	0	-87.28699493	107.1060028	-3.020153999	4.792202526e-05	1.634337877e-06	1.0
22	0	-87.28699493	107.1060028	-2.742524624	3.741765249e-05	-2.148337217e-06	1.0
23	0	-87.28699493	107.1060028	-3.078578234	-2.999498429e-05	9.928170641e-08	1.0
[EndOfFile]
